# xmcd
#
# Track frame offsets: 
#        150
#        10607
#        28440
#        36448
#        50526
#        65368
#        76806
#        89453
#        101644
#        113465
#        127316
#        140717
#        152042
#        163167
#        174340
#        184737
#        195277
#        205096
#        216760
#        229533
#        239455
#        251739
#        261008
#        273678
#        287448
#
# Disc length: 4013 seconds
#
# Revision: 1
# Processed by: cddbd v1.5.2PL0 Copyright (c) Steve Scherf et al.
# Submitted via: ExactAudioCopyFreeDBPlugin 1.0
#
DISCID=650fab19
DTITLE=Various Artist - Essential Country and Western
DYEAR=2010
DGENRE=Country
TTITLE0=Frankie Laine - Gunfight At The O.K. Corral
TTITLE1=Marty Robbins - Big Iron
TTITLE2=Johnny Cash - Five Feet High And Rising
TTITLE3=Eddy Arnold - Tennessee Stud
TTITLE4=Gene Autry - Ghost Riders In The Sky
TTITLE5=Don Gibson - Oh, Lonesome Me
TTITLE6=Slim Whitman - North Wind
TTITLE7=Buck Owens - Under Your Spell Again
TTITLE8=Johnny Horton - When It's Springtime In Alaska (It's Forty Bel
TTITLE8=ow)
TTITLE9=Lefty Frizzell - The Long Black Veil
TTITLE10=Ray Price - Heartaches By The Number
TTITLE11=Lester Flatt And Earl Scruggs - Cabin On The Hill
TTITLE12=Carl Smith - Ten Thousand Drums
TTITLE13=Lonnie Donegan - Rock Island Line
TTITLE14=Faron Young - Live Fast, Love Hard, Die Young
TTITLE15=Jim Reeves - He'll Have To Go
TTITLE16=George Jones - Seasons Of My Heart
TTITLE17=Patsy Cline - Walkin' After Midnight
TTITLE18=Merle Travis - Sixteen Tons
TTITLE19=Marty Robbins - Running Gun
TTITLE20=Stoney And Wilma Lee Cooper - Big Midnight Special
TTITLE21=Tennessee Ernie Ford - Nine Pound Hammer
TTITLE22=Hank Snow - I'm Movin' On
TTITLE23=Johnny Cash - Don't Take Your Guns To Town
TTITLE24=Cisco Houston - The Dying Cowboy
EXTD=
EXTT0=
EXTT1=
EXTT2=
EXTT3=
EXTT4=
EXTT5=
EXTT6=
EXTT7=
EXTT8=
EXTT9=
EXTT10=
EXTT11=
EXTT12=
EXTT13=
EXTT14=
EXTT15=
EXTT16=
EXTT17=
EXTT18=
EXTT19=
EXTT20=
EXTT21=
EXTT22=
EXTT23=
EXTT24=
PLAYORDER=
